/* XPM */
static char * xv_xpm[] = {
"32 32 15 1",
" 	c None",
".	c #000000",
"+	c #E1E100",
"@	c #000068",
"#	c #E1FF00",
"$	c #FFE100",
"%	c #FFFF00",
"&	c #FFC000",
"*	c #E1C000",
"=	c #FF9900",
"-	c #E19900",
";	c #FF6800",
">	c #E16800",
",	c #FF0000",
"'	c #E10000",
"                                ",
"                                ",
"                                ",
"                                ",
"                                ",
"                                ",
"                      .         ",
"         +       @+ ###@   +.   ",
"       ###.    ++..#$++.  %+%   ",
"       #+$.   ++@.%%$%+. &*&@   ",
"       $++. .#$+.  &&==. &-&.   ",
"       &&&.@&$$.   =-=. --==.   ",
"       &&*@-**.   =-;-. =>;@ ,  ",
"       &&&--=.   @>;>.   >;,'@. ",
"       ==;;;.    ,;>@.  @'';,.  ",
"       ',',.    ''''.   ''...   ",
"      ,,''..    ,,>@.  @,.      ",
"     ',,,,.    ,,''.   ',.      ",
"    '''>''.   '',',.  ''.       ",
"   ,''>'''. ',''',@  ';@.       ",
"  .'>'.'''@'''.,''' '''.        ",
"  ','. ,>''''..@'>,,''.         ",
" .,;.  ''',,..  ',;''.          ",
"  ;@    ';,..   ;,,'..          ",
"  .,     ...     ,'..           ",
"    .             .             ",
"                                ",
"                                ",
"                                ",
"                                ",
"                                ",
"                                "};
